<?xml version="1.0" standalone="no"?>
<!DOCTYPE svg PUBLIC "-//W3C//DTD SVG 1.1//EN" "http://www.w3.org/Graphics/SVG/1.1/DTD/svg11.dtd" >
<svg xmlns="http://www.w3.org/2000/svg">
<metadata>
Created by FontForge 20120731 at Wed Mar 18 16:57:38 2015
 By Ads
</metadata>
<defs>
<font id="iconfont" horiz-adv-x="1024" >
  <font-face 
    font-family="iconfont"
    font-weight="500"
    font-stretch="normal"
    units-per-em="1024"
    panose-1="2 0 6 3 0 0 0 0 0 0"
    ascent="812"
    descent="-212"
    x-height="792"
    bbox="-0.225806 -212 1090 812"
    underline-thickness="50"
    underline-position="-100"
    unicode-range="U+0078-E636"
  />
<missing-glyph horiz-adv-x="374" 
d="M34 0v682h272v-682h-272zM68 34h204v614h-204v-614z" />
    <glyph glyph-name=".notdef" horiz-adv-x="374" 
d="M34 0v682h272v-682h-272zM68 34h204v614h-204v-614z" />
    <glyph glyph-name=".null" horiz-adv-x="0" 
 />
    <glyph glyph-name="nonmarkingreturn" horiz-adv-x="341" 
 />
    <glyph glyph-name="x" unicode="x" horiz-adv-x="1001" 
d="M281 543q-27 -1 -53 -1h-83q-18 0 -36.5 -6t-32.5 -18.5t-23 -32t-9 -45.5v-76h912v41q0 16 -0.5 30t-0.5 18q0 13 -5 29t-17 29.5t-31.5 22.5t-49.5 9h-133v-97h-438v97zM955 310v-52q0 -23 0.5 -52t0.5 -58t-10.5 -47.5t-26 -30t-33 -16t-31.5 -4.5q-14 -1 -29.5 -0.5
t-29.5 0.5h-32l-45 128h-439l-44 -128h-29h-34q-20 0 -45 1q-25 0 -41 9.5t-25.5 23t-13.5 29.5t-4 30v167h911zM163 247q-12 0 -21 -8.5t-9 -21.5t9 -21.5t21 -8.5q13 0 22 8.5t9 21.5t-9 21.5t-22 8.5zM316 123q-8 -26 -14 -48q-5 -19 -10.5 -37t-7.5 -25t-3 -15t1 -14.5
t9.5 -10.5t21.5 -4h37h67h81h80h64h36q23 0 34 12t2 38q-5 13 -9.5 30.5t-9.5 34.5q-5 19 -11 39h-368zM336 498v228q0 11 2.5 23t10 21.5t20.5 15.5t34 6h188q31 0 51.5 -14.5t20.5 -52.5v-227h-327z" />
    <glyph glyph-name="uniE600" unicode="&#xe600;" horiz-adv-x="1090" 
d="M547 738q25 0 49 -10t40.5 -28t27 -41.5t10.5 -50.5q0 -39 -20 -69.5t-52 -47.5q-11 -31 -11 -65q0 -38 13.5 -75.5t38 -67.5t56.5 -49t69 -19q32 0 60 15.5t51 39.5t39 54t23 60q-28 13 -45 40t-17 59q0 23 8 42.5t22.5 33.5t34 23t41 9t40.5 -9t33.5 -23t23 -33.5
t8.5 -42.5q0 -32 -17 -58.5t-44 -39.5q-5 -51 -15 -104.5t-25.5 -106t-36 -101.5t-45.5 -90q-85 -32 -176 -49t-187.5 -17t-187 17t-176.5 49q-24 41 -44.5 90t-36 101.5t-26.5 106t-15 104.5q-26 13 -42 39.5t-16 58.5q0 23 8 42.5t22 33.5t33 23t40.5 9t41 -9t34 -23
t22.5 -33.5t8 -42.5q0 -33 -17.5 -60t-45.5 -39q8 -31 23.5 -61t38.5 -54.5t51.5 -40t59.5 -15.5q37 0 69.5 19t57 49t38.5 68t14 76q0 36 -15 70q-28 17 -46 47t-18 66q0 27 10 50.5t27.5 41.5t40.5 28t50 10z" />
    <glyph glyph-name="uniE601" unicode="&#xe601;" 
d="M511.5 551q52.5 0 99 -19.5t81 -54t54 -81t19.5 -99t-19.5 -99.5t-54 -81.5t-81 -54t-99 -19.5t-99 19.5t-81 54t-54 81.5t-19.5 99.5t19.5 99t54 81t81 54t99 19.5zM1019 361v-127h-61q-10 -76 -43 -142t-84.5 -117t-117 -84.5t-140.5 -43.5v-59h-126v59
q-76 11 -140.5 45t-115 85t-83.5 116t-42 141h-65v127h66q11 73 44.5 136.5t84 113.5t114 82.5t137.5 43.5v70h126v-69q74 -10 138.5 -43t115.5 -83t84.5 -114t44.5 -137h63zM511.5 -21q65.5 0 124 25t101.5 68.5t68.5 102t25.5 124t-25.5 124t-68.5 101.5t-101.5 68.5
t-124 25.5t-124 -25.5t-102 -68.5t-68.5 -101.5t-25 -124t25 -124t68.5 -102t102 -68.5t124 -25z" />
    <glyph glyph-name="uniE602" unicode="&#xe602;" horiz-adv-x="1000" 
d="M866 384l-321 294q-13 13 -31.5 13t-32.5 -13l-321 -294q-14 -13 -15 -32.5t12 -34.5q2 -2 5 -4.5t5.5 -4t5.5 -3t6.5 -2t6.5 -1t6 -0.5q9 0 17.5 3t14.5 9l289 264l289 -264q15 -13 34.5 -12t33 15.5t12.5 34t-16 32.5zM513 535l-254 -233v-299q0 -7 4 -12.5t9 -8.5
q9 -6 21 -6h135q7 0 12.5 5.5t5.5 12.5v144h135v-144q0 -7 5 -12.5t12 -5.5h136q11 0 20 6q3 1 5 3t4 4.5t3 6t2 7.5v299zM600 383q-2 -4 -8 -12q-8 -10 -16 -21l-8 -10q-4 -5 -7.5 -10t-5 -7.5t-2.5 -3.5q-1 -2 -0.5 -3.5t2.5 -1.5l9 -1h27l7 -3q2 -3 2 -6v-20
q0 -2 -2 -3.5t-6 -1.5h-47q-3 0 -6 -2l-2 -2q-1 -1 -1 -2.5t0.5 -3.5t0.5 -3v-6q0 -5 8 -4h47q8 0 8 -7v-17q0 -8 -12 -8h-10q-6 0 -13 -0.5t-13 -0.5h-7q-7 0 -7 -8v-27v-5q0 -4 -6 -4h-26q-10 0 -10 9v14v14q0 2 -0.5 3t-1 1.5t-1.5 1t-3 0.5h-48q-3 0 -5.5 1t-3.5 3.5
t-1 5.5t-1 6v8l2 7q2 3 7 3h9h16h16h8h4q2 0 2 4v15q0 4 -10 4h-46h-3h-3q-2 1 -2 5v9v5q0 3 -1 5q-1 5 3 8t10 3q6 -1 14 -0.5t12 0.5h9q5 0 3 3q-1 2 -9 12q-8 11 -17 22q-10 13 -24 29q-6 9 2 15q4 2 9 6q2 2 4.5 3.5t5.5 3.5q4 2 7.5 0t7.5 -9q1 -2 3.5 -5t5.5 -7
q2 -2 3.5 -4t3.5 -4.5t3.5 -4.5t3.5 -5q4 -5 7 -9t6.5 -8t5 -6t2.5 -3q1 -3 5.5 -4t6.5 2q0 1 0.5 1.5l1.5 1.5l2 4l3 3l4 6l4 6q2 3 5 7q9 13 13 20q7 9 8 11q4 6 7 7.5t9 -0.5l9 -5l7 -5q8 -9 4 -15zM260 300v-300q0 -15 13 -22q9 -5 20 -6h137q3 0 6.5 1.5t5.5 4.5
q5 5 5 12v145h136v-145q0 -7 5 -12.5t13 -5.5h136q11 1 20 6q14 7 14 22v300l-256 234zM870 383l-119 109v169q0 8 -5.5 13.5t-12.5 5.5h-45q-3 0 -5.5 -0.5t-4.5 -2t-3.5 -3t-3 -3.5t-2 -4.5t-0.5 -5.5v-94l-121 111q-6 5 -12.5 8t-13.5 4t-14 0t-13.5 -4t-11.5 -8
l-323 -295q-15 -14 -15.5 -33.5t12.5 -34.5q7 -7 16.5 -11t18.5 -4t17.5 3t15.5 9l290 266l291 -266q7 -6 16 -9.5t18 -3t18 4.5t15 11q9 10 11.5 22.5t-1 24.5t-13.5 21z" />
    <glyph glyph-name="uniE603" unicode="&#xe603;" 
d="M849 615h-673q-12 0 -20.5 8.5t-8.5 20.5t8.5 20.5t20.5 8.5h308v29q0 13 8.5 21.5t20.5 8.5q5 0 9.5 -1.5t8 -4.5t6 -6.5t4 -8t1.5 -9.5v-29h307q8 0 14.5 -4t10.5 -10.5t4 -14.5q0 -6 -2.5 -11.5t-6.5 -9.5t-9 -6t-11 -2zM849 147h-263h-58h-29h-59h-264v438h673v-438z
M264 380q0 -49 34 -83t82.5 -34t83 34t34.5 83h-117v117q-49 0 -83 -34t-34 -83zM586 498h-29v-29h29v29zM586 439h-29v-29h29v29zM586 381h-29v-29h29v29zM586 322h-29v-29h29v29zM586 264h-29v-29h29v29zM761 498h-146v-29h146v29zM761 439h-146v-29h146v29zM761 381h-146
v-29h146v29zM761 322h-146v-29h146v29zM761 264h-146v-29h146v29zM433 1h66v146h29v-146h65l-65 146h58l117 -263h-58l-39 88h-78v-147h-29v147h-79l-40 -88h-58l118 263h59zM528 147zM499 147z" />
    <glyph glyph-name="uniE604" unicode="&#xe604;" 
d="M437 41h-193q-27 2 -41.5 22.5t-17.5 45.5q3 25 17.5 41t41.5 18h193v63l-193 1q-27 2 -41.5 19t-17.5 43q3 25 17.5 41t41.5 18h144l-134 236q-10 12 -19 30.5t-8 40.5q5 28 20 45.5t56 22.5q24 -2 43 -16.5t31 -31.5l152 -278l167 280q12 17 31 30t43 16q15 -1 27.5 -4
t22 -10t16 -20t9.5 -34q0 -29 -20 -55l-155 -252h147q26 -2 41 -18t17 -41q-2 -26 -17.5 -44t-41.5 -20l-191 -1v-61h192q26 -2 41 -20t17 -43q-2 -26 -17 -43.5t-41 -19.5l-192 1v-106q-4 -85 -93 -85q-44 0 -68.5 21t-26.5 64v104z" />
    <glyph glyph-name="uniE605" unicode="&#xe605;" 
d="M607 260q8 12 14.5 24.5t12 25.5t9.5 26q6 19 9 38.5t2 38.5q-1 33 0 61q1 15 1.5 28t2.5 26h176q22 0 35.5 -11.5t13.5 -32.5v-224h-276zM586 181q17 -7 39 -12q11 -3 21.5 -6.5t21.5 -6.5q20 -8 36 -19.5t22 -30.5q2 -6 3.5 -12.5t2.5 -15t1.5 -17t0.5 -16.5
q0 -17 -3 -33q-1 -7 -3 -13t-4 -10q-4 -5 -21 -10.5t-43 -11.5q-13 -3 -27 -5.5t-30 -4.5q-10 -2 -20.5 -3t-21 -2.5t-20.5 -2.5q-31 -4 -60 -6q-15 -1 -27.5 -1.5t-23.5 -0.5q-21 0 -48.5 2.5t-57 5.5t-58 7.5t-52 9t-39.5 8.5q-8 2 -13 4t-8 4q-7 6 -11 35.5t2 76.5
q5 26 23 39.5t42 21.5q8 3 16 5.5t16.5 5t16.5 4.5q26 6 45 19q16 9 24 17.5t12 17t4 18t-1 20.5q-2 17 -12 26.5t-23 18.5q-3 3 -5.5 6.5t-4.5 8.5q-5 9 -9 18q-3 11 -7 22q-5 2 -10 6q-5 3 -9.5 9.5t-8.5 19t-3 22t4 17.5q1 1 1.5 2.5t1.5 3.5l2 2l2 4q1 1 2 3v18
q0 9 1 18l2 18q3 23 11 49t23 47q14 20 31 33t34.5 20t36 9.5t34.5 2.5q22 0 41.5 -4.5t36.5 -12.5t30 -18.5t21 -20.5q20 -23 28.5 -50.5t12.5 -52.5q4 -29 4 -57q5 -3 8 -9q3 -5 5 -13t0 -19q-1 -15 -7 -24q-1 -3 -3 -6t-3.5 -5t-3.5 -4q-7 -5 -13 -8q-4 -12 -8 -22l-2 -6
l-4 -6q-1 -3 -3 -6q-5 -9 -11 -14q-6 -6 -12 -10t-10 -8.5t-7 -10.5t-5 -14q-1 -6 -1 -11v-11q0 -12 6 -22.5t17.5 -21t31.5 -18.5zM488 28q0 4 -3 16q-2 11 -4 26l-2 10l-2 8q-1 5 -2 9q-3 13 -4 19q5 4 9.5 9.5t7.5 13.5q1 4 -2.5 9.5t-9.5 10.5q-6 6 -15 12h-37
q-8 -6 -14 -12q-6 -5 -9 -10.5t-2 -9.5q2 -3 3.5 -6.5t3.5 -5.5q3 -5 7 -9q-2 -5 -5 -17t-6 -26q-2 -7 -3.5 -13.5t-3.5 -13.5q-2 -12 -2 -19q0 -4 6 -10.5t14.5 -13.5t17 -12t11.5 -5q5 0 12 4q4 3 7.5 5.5t7.5 6.5q7 6 13 12.5t6 11.5zM873 212q5 0 7.5 -6.5t2.5 -14.5
t-2 -15q-2 -4 -4 -6t-4 -2h-152q-10 16 -22 27q-2 2 -4 3.5t-3.5 2.5t-3.5 2.5t-3.5 2.5t-3.5 2t-3.5 2.5t-3.5 1.5h199z" />
    <glyph glyph-name="uniE606" unicode="&#xe606;" 
d="M580 -210q-12 0 -25.5 -1t-25.5 -1t-23.5 0.5t-21 0.5t-16.5 0.5t-11 0.5h-4l-63 7q-181 31 -251 143q-36 60 -36 138q0 45 11.5 89t31 81t44.5 72.5t53 63.5t56 53t53.5 43t45 31t31.5 19l11 7h155q6 -5 17.5 -13t45 -35.5t63.5 -56.5t67 -72.5t64 -86.5t45 -96.5
t18 -104t-18.5 -93.5t-48 -71.5t-65 -51t-71.5 -34.5t-65.5 -19.5t-48.5 -10.5zM440 555v55h155v-55h-155zM592 628h-149l-80 180q47 -37 76 -37q6 0 13.5 2t15 5.5t15 7.5t13.5 8t11 7.5t8 5.5l3 2q5 -4 13.5 -10.5t28.5 -17t32.5 -10.5t32.5 10t33 19l13 10zM471 -51h70
v68h93v55h-93v30h93v55h-66l79 156h-77l-51 -105q-8 -19 -13 -35l-2 6q-1 3 -2 6.5t-2.5 7t-3.5 7.5t-3 8l-50 105h-77l78 -156h-65v-55h92v-30h-92v-55h92v-68z" />
    <glyph glyph-name="uniE607" unicode="&#xe607;" 
d="M512 746q-73 0 -141 -22.5t-123 -63.5t-96 -96t-63.5 -123t-22.5 -141q0 -91 35 -173.5t95 -142.5t142.5 -95t173.5 -35t173.5 35t142.5 95t95 142.5t35 173.5t-35 173.5t-95 142.5t-142.5 95t-173.5 35zM512 30l-224 116l61 193l163 -81l163 81l61 -193zM806 240
l-30 -14v195l-264 -131l-311 154l311 154l311 -154l-46 -22z" />
    <glyph glyph-name="uniE608" unicode="&#xe608;" 
d="M806 176q-11 -18 -31.5 -33.5t-48.5 -28.5t-61 -22t-72.5 -14t-80.5 -5q-103 0 -184 29t-109 74q-4 6 -7 7t-4 -1.5t-1 -5.5v-88q0 -42 40.5 -81.5t111.5 -65t153 -25.5t153 25.5t111.5 65t40.5 81.5v88q0 7 -4 7q-4 -2 -7 -7zM806 399q-27 -40 -108.5 -65.5
t-185.5 -25.5q-69 0 -130 12t-103.5 32.5t-60.5 46.5q-9 10 -11 0v-103q0 -28 24 -53.5t65 -44.5t97.5 -30t118.5 -11q127 0 216 41t89 98v103q0 6 -3 6q-4 -1 -8 -6zM512 684q-162 0 -253 -50q-52 -30 -52 -65v-55q0 -33 40.5 -61t111 -44.5t153.5 -16.5t153.5 16.5
t111 44.5t40.5 61v55q0 31 -40.5 57.5t-111 42t-153.5 15.5z" />
    <glyph glyph-name="uniE609" unicode="&#xe609;" 
d="M703 751h-382q-43 0 -73.5 -30.5t-30.5 -73.5v-693q0 -43 30.5 -73.5t73.5 -30.5h382q43 0 73.5 30.5t30.5 73.5v693q0 28 -14 52t-38 38t-52 14zM477 716h70q4 0 8 -2t6.5 -6t2.5 -9q0 -7 -5 -12t-12 -5h-70q-7 0 -12 5t-5 12t5 12t12 5zM512 -108q-12 0 -22 6t-16 16
t-6 22q0 9 3.5 17.5t9.5 14.5t14 9.5t17 3.5q18 0 31 -13t13 -32q0 -4 -0.5 -8.5t-2.5 -8.5t-4.5 -7.5t-5.5 -6.5t-6.5 -5.5t-7.5 -4t-8 -2.5t-9 -1zM737 40q0 -3 -1 -6.5t-3.5 -5.5t-5.5 -3.5t-7 -1.5h-416q-7 0 -12 5t-5 12v590q0 17 17 17h416q5 0 9 -2.5t6 -6.5t2 -8
v-590z" />
    <glyph glyph-name="uniE60A" unicode="&#xe60a;" 
d="M898 659h-772q-26 0 -44 -18t-18 -44v-586q0 -26 18 -44t44 -18h772q25 0 43.5 18t18.5 44v586q0 13 -5 24.5t-13.5 19.5t-20 13t-23.5 5zM419 551q13 0 24.5 -4t21 -11t17 -16.5t11.5 -21.5t4 -24q0 -21 -10.5 -39t-28.5 -28t-39 -10q-32 0 -54.5 22.5t-22.5 54.5
t22.5 54.5t54.5 22.5zM296 319q0 8 1.5 14.5t4.5 13t7.5 11.5t9.5 9.5t11 7.5t13 4.5t15 1.5h123q26 0 44 -18t18 -44v-77h-247v77zM172.5 11q-12.5 0 -22 9t-9.5 21.5t9.5 21.5t21.5 9q5 0 9 -1t7 -3t6 -5t5 -6t3 -7t1 -9q0 -12 -9 -21t-21.5 -9zM172.5 474q-12.5 0 -22 9
t-9.5 21.5t9.5 21.5t22 9t21.5 -9t9 -21.5t-9 -21.5t-21.5 -9zM867 41h-556q-4 0 -7.5 2.5t-5.5 6t-2 7.5q0 6 4.5 10.5t10.5 4.5h556q6 0 10.5 -4.5t4.5 -10.5t-4.5 -11t-10.5 -5zM867 134h-556q-6 0 -10.5 4.5t-4.5 11t4.5 11t10.5 4.5h556q4 0 7.5 -2t5.5 -5.5t2 -7.5
q0 -7 -4.5 -11.5t-10.5 -4.5zM867 273h-247q-6 0 -10.5 4.5t-4.5 11t4.5 11t10.5 4.5h247q6 0 10.5 -4.5t4.5 -11.5q0 -4 -2 -7.5t-5.5 -5.5t-7.5 -2zM867 381h-247q-6 0 -10.5 4.5t-4.5 11.5q0 4 2 7.5t5.5 5.5t7.5 2h247q6 0 10.5 -4.5t4.5 -10.5q0 -5 -2 -8.5t-5.5 -5.5
t-7.5 -2zM867 489h-247q-6 0 -10.5 4.5t-4.5 11t4.5 11t10.5 4.5h247q4 0 7.5 -2t5.5 -5.5t2 -7.5q0 -2 -0.5 -4t-1.5 -4t-2 -3.5t-3 -2.5t-4 -1.5t-4 -0.5z" />
    <glyph glyph-name="uniE60B" unicode="&#xe60b;" 
d="M245 570h536v-60h-536v60zM245 450h536v-59h-536v59zM185 629h63h509h84v-298h-656v298zM66 -91q0 -22 17.5 -38.5t41.5 -16.5h775q24 0 42 16.5t18 38.5v422h-60v358v59h-775v-59v-358h-59v-422z" />
    <glyph glyph-name="uniE60C" unicode="&#xe60c;" 
d="M837 354h-33q-7 0 -14.5 3.5t-13 9.5t-7.5 13l-18 45q-6 10 -4 22.5t10 20.5l23 23q3 3 5 7t2.5 8.5t0 8.5t-2.5 8t-5 7l-38 38q-8 8 -19.5 8t-19.5 -8l-23 -23q-8 -8 -20.5 -10t-22.5 4l-45 18q-11 4 -18.5 14t-7.5 21v33q0 11 -8 19t-19 8h-54q-6 0 -11 -2t-8.5 -6
t-5.5 -9t-2 -10v-33q0 -11 -7.5 -21t-18.5 -14l-45 -18q-7 -4 -15 -4.5t-15.5 2.5t-12.5 8l-23 23q-8 8 -19.5 8t-19.5 -8l-38 -38q-8 -8 -8 -19.5t8 -19.5l23 -23q8 -7 10 -20t-4 -23l-18 -45q-4 -11 -14 -18.5t-21 -7.5h-33q-11 0 -19 -8t-8 -19v-54q0 -11 8 -19t19 -8h33
q11 0 21 -7.5t14 -18.5l18 -45q6 -10 4 -23t-10 -20l-23 -23q-8 -8 -8 -19.5t8 -19.5l38 -38q8 -8 19.5 -8t19.5 8l23 23q8 8 20.5 10t22.5 -4l45 -18q11 -4 18.5 -14t7.5 -22v-32q0 -11 8 -19t19 -8h54q11 0 19 8t8 19v33q0 11 7.5 21t18.5 14l45 18q10 6 23 4t20 -10
l23 -23q8 -8 19.5 -8t19.5 8l38 38q4 4 6 9t2 10.5t-2 10.5t-6 9l-23 23q-5 5 -8 12.5t-2.5 15.5t4.5 15l18 45q4 11 14 18.5t21 7.5h33q7 0 13.5 3.5t10 10t3.5 13.5v54q0 6 -2 11t-6 8.5t-9 5.5t-10 2zM647 300q0 -37 -18 -68t-49 -49t-68 -18q-56 0 -95.5 39.5
t-39.5 95.5t39.5 95.5t95.5 39.5t95.5 -39.5t39.5 -95.5zM914 -26q0 -7 -1 -13.5t-3.5 -13t-6 -12t-7.5 -10.5t-9 -9t-10.5 -7.5t-12 -6t-13 -3.5t-13.5 -1h-652q-31 0 -53.5 22.5t-22.5 53.5v313h-78v-313q0 -31 12 -59.5t33 -49.5t49.5 -33t59.5 -12h652q64 0 109 45
t45 109v313h-78v-313zM838 780h-652q-64 0 -109 -45t-45 -109v-313h78v313q0 31 22.5 53.5t53.5 22.5h652q21 0 38.5 -10t27.5 -28t10 -38v-313h78v313q0 31 -12 59.5t-33 49.5t-49.5 33t-59.5 12z" />
    <glyph glyph-name="uniE60D" unicode="&#xe60d;" 
d="M512 682q-121 0 -224 -50t-163 -135.5t-60 -187.5q0 -76 34.5 -144t96.5 -119l-24 -128l107 73q34 -17 71.5 -29t78.5 -18.5t83 -6.5q121 0 224 49.5t163 135.5t60 187.5t-60 187t-163 135.5t-224 50zM512 -33q-119 0 -219 51l-16 8l-62 -43l14 75l-14 11q-58 48 -89 110
t-31 130q0 93 56 172t152 125t209 46t209 -46t152 -125t56 -172q0 -69 -33 -132.5t-89 -109.5t-133 -73t-162 -27zM318 330q-6 0 -11.5 -2.5t-9.5 -6.5t-6 -9.5t-2 -11.5q0 -12 8.5 -21t20.5 -9q8 0 15 4t11 11t4 15t-4 15t-11 11t-15 4zM512 330q-6 0 -11.5 -2.5t-9.5 -6.5
t-6.5 -9.5t-2.5 -11.5q0 -12 9 -21t21 -9t21 9t9 21t-9 21t-21 9zM705.5 330q-12.5 0 -21 -9t-8.5 -21q0 -8 4 -15t11 -11t15 -4q12 0 20.5 9t8.5 21t-8.5 21t-21 9z" />
    <glyph glyph-name="uniE60E" unicode="&#xe60e;" 
d="M957 135q0 -24 -14 -42t-31 -26t-32 -8q-13 0 -19.5 0.5t-15 2.5t-12 7.5t-3.5 13.5l-103 52v-25q0 -43 -37.5 -85.5t-90.5 -42.5h-360q-53 0 -90 42.5t-37 85.5v102q-19 0 -35 16.5t-16 35.5v180q0 19 16 35t35 16q0 57 35 92t92 35h360q29 0 52.5 -9t40 -25.5t26 -40.5
t9.5 -52v-26l103 76h50q21 0 49 -16.5t28 -33.5v-360zM343 495v-180v-205l256 205z" />
    <glyph glyph-name="uniE60F" unicode="&#xe60f;" 
d="M258 588q-54 62 -57 111q-1 34 29 35h564q40 0 26 -53q-13 -45 -54 -93l-34 -39q-9 -12 -20.5 -21.5t-22.5 -15.5t-21 -10t-18 -4h-276q-17 0 -40 14t-42 36zM788 17l-30 28q9 8 13.5 19t4.5 23q0 16 -7.5 29.5t-21 21.5t-29.5 8h-4q0 17 -9.5 30t-24.5 25t-31.5 26.5
t-33 44t-25.5 70.5h53q27 0 46 17t19 41.5t-19 41.5t-46 17h-64h-135h-63q-6 0 -12.5 -1t-12.5 -3.5t-11 -5.5t-9.5 -7t-8 -8.5t-6 -10t-4 -11.5t-1.5 -12q0 -15 8.5 -29t24 -21.5t32.5 -7.5h52q-7 -35 -20 -61.5t-26 -40.5t-27.5 -26.5t-25.5 -20.5t-18 -20t-7 -27h-3
q-24 0 -41.5 -17.5t-17.5 -41.5q0 -25 18 -42l-30 -28q-64 -57 -73 -106q-5 -38 37 -40h626q48 0 35 47q-14 47 -72 99z" />
    <glyph glyph-name="uniE610" unicode="&#xe610;" 
d="M886 604h-748q-31 0 -53 -22t-22 -53v-458q0 -31 22 -53t53 -22h748q15 0 29 6t24 16t16 24t6 29v458q0 31 -22 53t-53 22zM868 550l-298 -264q-10 -8 -18.5 -15t-15.5 -11t-13 -6.5t-11 -2.5q-9 0 -23.5 9t-34.5 26l-298 264h712zM119 88v414l233 -205zM158 50l234 207
l38 -34q34 -29 82 -29q24 0 44.5 7.5t37.5 21.5l38 34l234 -207h-708zM905 88l-233 209l233 205v-414zM905 88z" />
    <glyph glyph-name="uniE611" unicode="&#xe611;" 
d="M947 73h-871q-32 0 -54 22t-22 54v189q0 21 10 38t27.5 27.5t38.5 10.5h38q6 19 15.5 49t29.5 91.5t27 86.5q13 43 29 59.5t47 16.5h499q22 0 34 -6t21 -21.5t20 -48.5l73 -227h38q31 0 53.5 -22.5t22.5 -53.5v-189q0 -21 -10.5 -38.5t-28 -27.5t-37.5 -10zM265 149h493
v37h-493v-37zM758 414q0 32 -22.5 56t-53.5 24t-53.5 -24t-22.5 -56q0 -1 16 -1h38h44h38q16 0 16 1zM265 224h493v38h-493v-38zM265 300h493v38h-493v-38zM78 262q0 -31 22.5 -53.5t53.5 -22.5t53.5 22.5t22.5 54t-22.5 53.5t-53.5 22q-21 0 -38.5 -10t-27.5 -27.5
t-10 -38.5zM799 641q-8 21 -15.5 29.5t-22.5 8.5h-231v-38h19q4 0 7.5 -1.5t6 -4t4 -6t1.5 -7.5q0 -3 -1 -6t-2.5 -5t-4 -4t-5.5 -3t-6 -1h-76q-7 0 -12.5 5.5t-5.5 13.5q0 3 0.5 6t2.5 5.5t4.5 4t5 2.5t5.5 1h19v38h-230q-5 0 -8.5 -0.5t-6.5 -1.5t-5.5 -2.5t-5 -4.5
t-4.5 -7t-4 -9.5t-4 -12.5q-4 -15 -22 -71.5t-34 -105.5l-16 -50h434q0 39 28 69.5t66 30.5t66 -30.5t29 -69.5h96q-2 8 -6.5 22t-16 50t-20.5 65t-18 56t-11 34zM868.5 336q-31.5 0 -53.5 -22.5t-22 -54t22 -53.5t53.5 -22t54 22t22.5 53.5t-22.5 54t-54 22.5zM189 -60
q0 -23 -16.5 -40t-40 -17t-40 17t-16.5 40v95h113v-95zM947 -60q0 -23 -16.5 -40t-40 -17t-40.5 17t-17 40v95h114v-95z" />
    <glyph glyph-name="uniE612" unicode="&#xe612;" 
d="M64 623v-646h896v646h-896zM904 567v-108h-784v108h784zM120 33v313h784v-313h-784zM171 109h210v56h-210v-56zM171 221h420v56h-420v-56zM711 221h140v56h-140v-56z" />
    <glyph glyph-name="uniE613" unicode="&#xe613;" 
d="M820 15q0 -25 -10 -47t-27.5 -38.5t-41 -26t-51.5 -9.5h-357q-28 0 -51.5 9.5t-41 26t-27.5 38.5t-10 47v675q0 25 10 47.5t27.5 39t41 26t51.5 9.5h357q28 0 51.5 -9.5t41 -26t27.5 -39t10 -47.5v-675zM739 642h-456v-578h456v578zM511 36q-21 0 -36.5 -15t-15.5 -37
t15.5 -37.5t36.5 -15.5q22 0 37 15.5t15 37.5t-15 37t-37 15zM592 727q0 8 -5 12.5t-12 4.5h-128q-5 0 -10.5 -4.5t-5.5 -12.5t5 -12.5t11 -4.5h128q7 0 12 4.5t5 12.5z" />
    <glyph glyph-name="uniE614" unicode="&#xe614;" 
d="M674 277q45 40 71 97t26 123q0 77 -35.5 142.5t-96 103.5t-132.5 38q-109 0 -186 -83.5t-77 -200.5q0 -119 78 -202q8 -7 22 -18.5t52.5 -30.5t78 -26.5t94.5 5t105 52.5zM851 80l-143 131q-20 -17 -43.5 -31t-65.5 -27t-85.5 -14t-103 17t-119.5 58q-24 -19 -48.5 -39.5
t-58.5 -54t-58 -63.5t-39 -64.5t-10 -61.5q1 -4 2 -11t11.5 -24t27.5 -30.5t54.5 -25t87.5 -13.5q22 -1 58.5 -3t133 -4t175.5 1.5t154.5 18t100.5 40.5q36 25 35 72q0 57 -66 128z" />
    <glyph glyph-name="uniE615" unicode="&#xe615;" 
d="M828 381h-72v168q0 105 -74.5 180t-180.5 75q-51 0 -98.5 -20.5t-81.5 -54.5t-54.5 -81t-20.5 -99v-168h-72q-26 0 -44.5 -18.5t-18.5 -44.5v-459q0 -26 18.5 -44.5t44.5 -18.5h654q26 0 44.5 18.5t18.5 44.5v459q0 26 -18.5 44.5t-44.5 18.5zM537 77v-100q0 -9 -9 -9
h-54q-8 0 -8 9v100q-20 10 -31.5 28.5t-11.5 40.5t10.5 40t28.5 28.5t39 10.5t39.5 -10.5t29 -28.5t10.5 -40q0 -15 -5.5 -28.5t-15.5 -24t-22 -16.5zM658 381h-314v164q0 32 12.5 61t33.5 50t50 33.5t61 12.5q65 0 111 -46t46 -111v-164z" />
    <glyph glyph-name="uniE616" unicode="&#xe616;" horiz-adv-x="1055" 
d="M1055 408zM831 528q0 21 -11.5 32.5t-22.5 12.5l-11 1h-549h-3q-1 0 -6 -1t-9 -2.5t-9.5 -5t-9 -8t-6.5 -12t-3 -17.5v-45h640v45zM694 666h-366h-2t-6.5 -1t-9 -2.5t-9.5 -5t-9 -8t-6.5 -12t-2.5 -17.5h457q-6 41 -46 46zM923 483l-27 27v-73h-769v73l-27 -27
q-3 -4 -12.5 -12.5t-12 -11.5t-7.5 -11t-5.5 -14.5t-0.5 -17.5t2 -25q6 -33 37.5 -215.5t33.5 -198.5q3 -13 9.5 -22.5t14.5 -13.5t15.5 -6.5t11.5 -2.5l5 -1h640q2 0 5.5 0.5t12 3t15.5 6.5t14 13.5t9 22.5q3 17 34 199.5t37 214.5q3 12 3.5 21.5t-1 17t-3 12.5t-6 11
t-7.5 9t-10.5 10t-10.5 11zM694 235v-5q0 -4 -2.5 -11.5t-7 -13.5t-14 -11t-22.5 -5h-274q-20 0 -31.5 11.5t-12.5 22.5l-2 12v91h64v-73h238v73h64v-91zM694 235z" />
    <glyph glyph-name="uniE617" unicode="&#xe617;" 
d="M512 682q-121 0 -224 -50t-163 -135.5t-60 -187.5q0 -76 34.5 -144t96.5 -119l-24 -128l107 73q52 -26 111 -40t122 -14q121 0 224 49.5t163 135.5t60 187.5t-60 187t-163 135.5t-224 50zM512 -33q-119 0 -219 51l-16 8l-62 -43l14 75l-14 11q-58 48 -89 110t-31 130
q0 70 33 133.5t89 109.5t133 73t162 27q113 0 209 -46t152 -125t56 -172t-56 -172t-152 -124.5t-209 -45.5zM318 350q-21 0 -35.5 -14.5t-14.5 -34.5q0 -14 7 -25.5t18.5 -18t24.5 -6.5q21 0 35.5 14.5t14.5 35t-14.5 35t-35.5 14.5zM318 271q-8 0 -14.5 4t-10.5 11t-4 15
t4 14.5t10.5 10.5t14.5 4q12 0 20.5 -8.5t8.5 -20.5q0 -8 -4 -15t-10.5 -11t-14.5 -4zM512 349q-21 0 -35.5 -14.5t-14.5 -34.5q0 -14 7 -25.5t18.5 -18t24.5 -6.5t24.5 6.5t18.5 18t7 25.5q0 20 -14.5 34.5t-35.5 14.5zM512 270q-12 0 -20.5 9t-8.5 21q0 8 4 14.5
t10.5 10.5t14.5 4q12 0 20.5 -8.5t8.5 -20.5q0 -8 -4 -15t-10.5 -11t-14.5 -4zM706 349q-20 0 -34.5 -14.5t-14.5 -34.5q0 -10 4 -19.5t10.5 -16t15.5 -10.5t19 -4q14 0 25.5 6.5t18 18t6.5 25.5q0 10 -4 19t-10.5 15.5t-16 10.5t-19.5 4zM706 270q-12 0 -20.5 9t-8.5 21
t8.5 20.5t20.5 8.5t21 -8.5t9 -20.5t-9 -21t-21 -9z" />
    <glyph glyph-name="uniE618" unicode="&#xe618;" 
d="M339 12v417q0 13 -8 21.5t-20 8.5h-84q-6 0 -11.5 -2.5t-9 -6.5t-6 -9.5t-2.5 -11.5v-417h141zM518 12v596q0 5 -1 10t-4 8.5t-6.5 6.5t-7.5 4.5t-9 1.5h-84q-12 0 -20 -9t-8 -22v-596h140zM698 12v264q0 4 -1 8t-3 7t-4.5 6t-6 5t-7 3t-7.5 1h-84q-4 0 -7.5 -1t-6.5 -3
t-5.5 -5t-4.5 -6t-3 -7t-1 -8v-264h141zM877 12v417q0 5 -1.5 9.5t-4 8t-6 6.5t-8 4.5t-8.5 1.5h-85q-7 0 -13.5 -4.5t-10.5 -11t-4 -14.5v-417h141zM902 -26h-742v678q0 5 -2 10t-5.5 8.5t-8 5.5t-10 2t-10 -2t-8 -5.5t-5.5 -8.5t-2 -10v-730h793q11 0 18.5 7.5t7.5 18.5
t-7.5 18.5t-18.5 7.5z" />
    <glyph glyph-name="uniE619" unicode="&#xe619;" 
d="M761 697zM677 697q0 35 24.5 59.5t59.5 24.5t60 -24.5t25 -59.5t-25 -60t-60 -25q-23 0 -42.5 11.5t-30.5 31t-11 42.5zM952 307l-8 130q0 9 -5 18l-42 70v32q0 12 -8.5 21t-20.5 9h-177q-12 0 -20.5 -9t-8.5 -21v-51l-103 -73l-101 77v40q0 11 -8.5 19.5t-19.5 8.5h-169
q-11 0 -19.5 -8.5t-8.5 -19.5v-49l-157 -81q-8 -5 -4 -13l26 -50q5 -8 13 -4l122 64v-72v-90l-44 -104h44v-220q0 -4 3 -7t7 -3h56q9 0 9 10v220h37h30v-220q0 -4 3 -7t6 -3h56q10 0 10 10v220h52l-44 103v163l72 -56l14 -19q5 -7 13 -2v1l7 -6q3 -2 7 -1.5t6 3.5l30 39
l54 39v-172v-110v-305q0 -9 9 -9h57q9 0 9 9v276h87v-276q0 -4 3 -6.5t7 -2.5h55q3 0 5 1t3.5 3t1.5 5v415q0 1 -0.5 2t-0.5 2v21q7 -3 15 -3h2q17 1 28 13t10 29zM346 667zM266 667q0 33 23.5 56.5t56.5 23.5t56 -23.5t23 -56.5t-23 -56t-56 -23t-56.5 23t-23.5 56z" />
    <glyph glyph-name="uniE61A" unicode="&#xe61a;" 
d="M807 211h-155q-7 0 -12.5 -5t-5.5 -12v-11q0 -3 1.5 -6.5t4 -5.5t5.5 -3.5t7 -1.5h155q4 0 7.5 1.5t6 3.5t4 5.5t1.5 6.5v11q0 7 -5.5 12t-13.5 5zM478 313q14 15 22.5 34t8.5 40q0 45 -31.5 76.5t-76.5 31.5t-77 -31.5t-32 -76.5q0 -7 1.5 -14.5t3.5 -14t4.5 -13
t6.5 -12.5t8 -11.5t9 -10.5q-11 -4 -21 -10t-19 -13.5t-17.5 -15.5t-15.5 -17.5t-13.5 -19.5t-11 -21t-8.5 -22q-1 -2 -2 -5t-1 -7v0v-1q0 -5 3 -10t8 -8t11 -3q9 0 15.5 6.5t6.5 15.5q7 23 21 42.5t32.5 33.5t41.5 22t48 8q33 0 62.5 -14t50.5 -38t30 -55q1 -5 4 -10t8 -8
t10 -3q10 0 16 6.5t6 15.5v5q0 2 -1 4l-2 4q-13 40 -41.5 71.5t-67.5 48.5zM402 319q-19 0 -34 9t-24 24.5t-9 33.5q0 9 2 17.5t6.5 16t10.5 13.5t13.5 10.5t16.5 7t18 2.5q27 0 47 -20t20 -47q0 -14 -5.5 -26.5t-14.5 -21.5t-21.5 -14t-25.5 -5zM807 338h-155
q-7 0 -12.5 -5t-5.5 -12v-11q0 -2 0.5 -4t2 -4t3 -3.5t3.5 -2.5t4.5 -2t4.5 -1h155q5 0 9.5 2.5t7 6.5t2.5 8v11q0 17 -19 17zM895 637h-713q-16 0 -29 -8t-21 -21.5t-8 -29.5v-523q0 -24 17 -41t41 -17h713q25 0 42 17t17 41v523q0 24 -17 41.5t-42 17.5zM884 40h-689
q-12 0 -20.5 8.5t-8.5 20.5v496q0 12 8.5 20.5t20.5 8.5h689q5 0 9.5 -1.5t8 -4t6 -6t4 -8t1.5 -9.5v-496q0 -5 -2.5 -10.5t-6 -9.5t-9 -6.5t-11.5 -2.5zM807 466h-155q-7 0 -12.5 -5t-5.5 -12v-10q0 -4 1.5 -7t4 -5.5t5.5 -3.5t7 -1h155q5 0 9.5 2t7 6t2.5 9v10q0 4 -1.5 7
t-4 5t-6 3.5t-7.5 1.5z" />
    <glyph glyph-name="uniE61B" unicode="&#xe61b;" horiz-adv-x="1055" 
d="M752 392q-125 0 -213.5 -88.5t-88.5 -213.5t88.5 -213.5t214 -88.5t213.5 90q87 89 88 212q0 82 -40.5 151.5t-110 110t-151.5 40.5zM794 109h12h12h12h12q6 0 6 -7v-28h-80v-45h80v-34h-80v-3q-1 -3 -1 -5v-53q0 -3 -0.5 -4t-1.5 -2t-4 0h-15h-15q-7 -1 -7 6v53v7h-83
v35h83v45h-84v4v4v4v4v4v4v4v3q1 3 6 3q12 1 57 1h8q-14 23 -43 73t-44 76q1 1 3 1h4h34q2 0 4 -0.5t3 -2.5l4 -3q15 -30 70 -134q58 107 72 134q4 6 10 6h32h7q-33 -57 -88 -150h7h8zM159 734q6 -4 12.5 -9t12.5 -10l6 -6q3 -3 6 -6.5t5.5 -6.5t4.5 -7q5 -8 12 -18
q7 -9 14 -19l14 -22h208q7 9 13 20q5 9 11 17.5t11 15.5t10 13.5t10 12.5t12.5 12t16.5 12q8 4 13.5 12t7 15.5t-1.5 15.5q-1 2 -3 4t-4.5 4t-6.5 3q-9 3 -15.5 2t-12.5 -4q-7 -2 -14 -5q-8 -3 -17 -3q-10 0 -17 4q-3 1 -6 3t-6 5q-4 3 -11 10q-3 3 -7 5t-9 3q-20 8 -32.5 3
t-24.5 -15q-2 -3 -4.5 -5t-4.5 -3.5t-3.5 -3t-3.5 -2.5q-3 -2 -5 -2l-4 2q-2 1 -3.5 2.5t-3.5 2.5q-5 3 -9 6q-3 2 -5 4l-4 4q-2 2 -4.5 4t-5.5 3t-6.5 2t-7.5 2q-8 1 -15.5 -0.5t-13.5 -5.5q-17 -10 -24 -17.5t-21 -10.5q-2 0 -4.5 -0.5t-4.5 0t-4.5 0.5t-4.5 1
q-3 1 -6.5 2t-6.5 2t-7 2q-10 3 -19 4q-4 0 -8 -1t-8 -3q-14 -11 -9 -26t18 -24zM634 420l-1 1l-1 1q-8 9 -16.5 17.5t-16.5 16t-16 14.5q-30 23 -52 44t-37 37q-18 19 -30 34h-226q-13 -16 -31 -35q-14 -16 -35 -36t-47 -42q-30 -26 -56 -58q-13 -16 -23.5 -33.5
t-19.5 -36.5q-17 -38 -23.5 -82t2.5 -91q8 -43 33.5 -86t68 -78t104 -57t140.5 -22q45 0 87 8q-36 73 -36 154q0 113 64.5 203t167.5 127z" />
    <glyph glyph-name="uniE61C" unicode="&#xe61c;" 
d="M256 428l256 -321l257 321h-513z" />
    <glyph glyph-name="uniE61D" unicode="&#xe61d;" 
d="M657 751h-291q-88 0 -163.5 -47.5t-119 -129t-43.5 -176.5q0 -133 79 -232t199 -118v-162q0 -26 25 -36l14 -3q17 0 28 12l178 185h94q89 0 164.5 47.5t119 129t43.5 177.5q0 41 -8.5 80.5t-24.5 74.5t-38.5 65.5t-51 55t-60.5 41.5t-68.5 26.5t-75.5 9.5zM495 242h-181
q-8 0 -13.5 6t-5.5 14q0 5 2.5 9.5t7 7t9.5 2.5h181q8 0 14 -5.5t6 -13.5t-6 -14t-14 -6zM710 371h-396q-8 0 -13.5 6t-5.5 14t5.5 13.5t13.5 5.5h396q8 0 13.5 -5.5t5.5 -13.5t-5.5 -14t-13.5 -6zM710 514h-396q-8 0 -13.5 6t-5.5 14t5.5 13.5t13.5 5.5h396q8 0 13.5 -5.5
t5.5 -13.5t-5.5 -14t-13.5 -6z" />
    <glyph glyph-name="uniE61E" unicode="&#xe61e;" 
d="M661 393h-298q-15 0 -26 10.5t-11 24.5q0 7 3 13.5t8 11.5t12 7.5t14 2.5h298q7 0 14 -2.5t12 -7.5t8 -11.5t3 -13.5q0 -14 -11 -24.5t-26 -10.5zM591 253h-228q-15 0 -26 10.5t-11 25t11 25t26 10.5h228q16 0 27 -10.5t11 -25.5q0 -4 -1.5 -8.5t-4 -8.5t-6 -7.5
t-7.5 -5.5t-9 -3.5t-10 -1.5zM1024 373q0 89 -40.5 170.5t-109 140t-163.5 93.5t-199 35t-199 -35t-163.5 -93.5t-109 -140t-40.5 -170.5q0 -100 51.5 -189.5t146.5 -153.5q12 -9 27 -6t23 15q6 9 6.5 18.5t-3.5 18.5t-12 14q-166 112 -166 283q0 99 59 183.5t160 133.5
t220 49q51 0 100.5 -9.5t92.5 -28t81 -43.5t68 -56.5t52 -67.5t33.5 -77t11.5 -84q0 -99 -59 -183.5t-160 -133.5t-220 -49h-4l-2 -1q-9 2 -17 -0.5t-14.5 -8t-9.5 -14.5q-11 -29 -108 -84q20 66 4 90q-12 18 -34 18q-7 0 -14 -3t-12 -7.5t-8 -11.5t-3 -14q1 -10 5 -19
q-3 -15 -13.5 -48t-24.5 -66q-9 -23 9 -40q10 -10 25 -10q4 0 8 1t7 2q32 14 65.5 31.5t81 50t68.5 62.5q137 2 252.5 61t183 159t67.5 218z" />
    <glyph glyph-name="uniE61F" unicode="&#xe61f;" 
d="M815 314q-8 99 -81.5 176.5t-179.5 88.5q-75 8 -140.5 -16.5t-109 -70t-66.5 -108t-18 -129.5q11 -147 107 -163h1l2 -1v1v2q5 4 -0.5 14.5t-19 27.5t-17.5 24q0 1 -1 1l-3 6q-26 52 -27.5 107t19.5 102t56 84t84 58t101 20q70 -2 126.5 -35.5t88.5 -86t37 -114.5
q9 -110 -61 -189t-175 -88q-147 -12 -148 82q3 4 8.5 6t10.5 2.5t11 2t11 4.5q12 9 26.5 32.5t14.5 37.5q0 7 -6.5 22.5t-6.5 24.5q2 31 18.5 65t42.5 59t53 30q1 4 3 9.5t3 9t3 9t3 9t2.5 9.5t2 10.5t1.5 11t0.5 11.5t-0.5 12q-14 7 -28 7.5t-25 -3t-23 -12.5t-19.5 -16.5
t-18 -22t-16 -23t-14.5 -23.5q-5 -7 -7 -10q-89 -144 -69 -246q-34 -54 -10.5 -90t80 -52t122.5 -9q115 13 188.5 108t63.5 222zM623 377q25 37 22 79q-7 9 -14 14.5t-18 7.5q1 -5 0.5 -11t-1.5 -11t-3 -11.5t-3 -11t-4 -12t-4 -11t-4.5 -11t-4.5 -9.5t-4 -8.5t-3 -7.5
q35 1 41 3zM431 97q31 -18 51.5 3t30.5 57q-2 3 -6 11.5t-8.5 13.5t-10.5 7q-3 -12 -7.5 -22.5t-11 -19.5t-12 -16.5t-13.5 -17t-13 -16.5z" />
    <glyph glyph-name="uniE620" unicode="&#xe620;" 
d="M496 347q27 -6 46.5 -25.5t25.5 -45.5h31q-4 41 -34 70q-4 4 -9.5 8t-11 7.5t-11 6.5t-11.5 5t-12.5 3.5t-13.5 2.5v-32zM649 276h38q-6 76 -60 130t-131 60v-38q40 -3 74 -24t54.5 -54.5t24.5 -73.5zM766 142l-118 63q-3 2 -7 2t-7.5 -1.5t-5.5 -3.5l-29 -29
q-8 -8 -20 -8q-2 0 -5.5 0.5t-15 4.5t-25 11.5t-34.5 24t-43 38.5q-36 36 -55.5 66.5t-22.5 43.5l-2 13q0 5 3 11t6 10l34 33q8 9 3 19l-68 115q-5 10 -14 2l-78 -78q-8 -9 -10 -21q0 -2 -0.5 -6.5t1.5 -19.5t6 -31t14 -41.5t25 -51t40.5 -58.5t58.5 -65q44 -45 88.5 -76
t76.5 -44t57.5 -19.5t37.5 -5.5l13 1q12 1 21 10l78 78q2 2 2.5 4.5t-1 5t-4.5 3.5zM496 552v-37q97 -6 165.5 -74.5t74.5 -164.5h36q-1 107 -84 190q-84 84 -192 86zM512 703q109 0 202 -54t147 -147t54 -202t-54 -202t-147 -147t-202 -54t-202 54t-147 147t-54 202t54 202
t147 147t202 54zM512 748q-122 0 -225 -60t-163 -163t-60 -225t60 -225t163 -163t225 -60t225 60t163 163t60 225t-60 225t-163 163t-225 60z" />
    <glyph glyph-name="uniE621" unicode="&#xe621;" 
d="M512 699q-108 0 -200 -53.5t-145.5 -145.5t-53.5 -200t53.5 -200t145.5 -145.5t200 -53.5t200 53.5t145.5 145.5t53.5 200t-53.5 200t-145.5 145.5t-200 53.5zM552 9h-80v80h80v-80zM679.5 365.5q-17.5 -31.5 -69.5 -76.5q-34 -31 -44.5 -45t-15.5 -33t-6 -61h-68v6v4v4
v4v3q0 41 12 71q8 23 28 46q14 17 50.5 49t47 51.5t10.5 41.5q0 41 -32 72t-78 31q-45 0 -75 -28t-39 -88l-73 9q10 80 58.5 122.5t127.5 42.5q84 0 134 -45.5t50 -110.5q0 -38 -17.5 -69.5z" />
    <glyph glyph-name="uniE622" unicode="&#xe622;" 
d="M440 294h-260q-10 0 -19.5 -4t-16.5 -11t-11.5 -16.5t-4.5 -20.5v-247q0 -21 15.5 -36.5t36.5 -15.5h260q22 0 37 15.5t15 36.5v247q0 7 -1.5 14t-5 12.5t-8.5 10.5t-10.5 8t-12 5t-14.5 2zM395 77q5 -4 6 -10.5t-1 -13t-7 -11.5t-11.5 -7t-12.5 -0.5t-11 6.5l-48 47
l-47 -47q-7 -7 -17.5 -6.5t-18 8t-8 17.5t6.5 17l48 48l-48 48q-7 7 -6.5 17t8 17.5t18 8.5t17.5 -6l47 -48l48 48q7 7 17.5 6t17.5 -8q5 -5 7 -11.5t1 -13t-6 -10.5l-48 -48zM440 684h-260q-21 0 -36.5 -15t-15.5 -37v-247q0 -21 15.5 -36.5t36.5 -15.5h260q22 0 37 15.5
t15 36.5v247q0 7 -1.5 14t-5 12.5t-8.5 10.5t-10.5 8t-12 5t-14.5 2zM404 489h-187q-10 0 -17 7.5t-7 18.5t7 18.5t17 7.5h187q6 0 11.5 -3.5t9 -9.5t3.5 -13q0 -11 -7 -18.5t-17 -7.5zM844 294h-261q-6 0 -11.5 -1.5t-10.5 -4t-10 -6t-8.5 -8t-6 -9.5t-3.5 -11t-1 -12v-247
q0 -21 15 -36.5t36 -15.5h261q21 0 36.5 15.5t15.5 36.5v247q0 22 -15.5 37t-36.5 15zM807 47h-187q-10 0 -16.5 7.5t-6.5 18.5t6.5 18.5t16.5 7.5h187q10 0 16.5 -7.5t6.5 -18.5q0 -7 -3 -13t-8.5 -9.5t-11.5 -3.5zM807 138h-187q-10 0 -16.5 7.5t-6.5 18.5q0 5 1.5 10
t4.5 8.5t7.5 5.5t9.5 2h187q10 0 16.5 -7.5t6.5 -18.5t-6.5 -18.5t-16.5 -7.5zM844 684h-261q-21 0 -36 -15t-15 -37v-247q0 -21 15 -36.5t36 -15.5h261q21 0 36.5 15.5t15.5 36.5v247q0 14 -7 26t-19 19t-26 7zM807 489h-67v-68q0 -6 -3.5 -11.5t-9.5 -8.5t-14 -3
q-5 0 -9.5 2t-8 5t-6 7.5t-2.5 8.5v68h-67q-10 0 -16.5 7.5t-6.5 18.5t6.5 18.5t16.5 7.5h67v68q0 9 8 16t18.5 7t18.5 -7t8 -16v-68h67q10 0 16.5 -7.5t6.5 -18.5t-6.5 -18.5t-16.5 -7.5z" />
    <glyph glyph-name="uniE623" unicode="&#xe623;" horiz-adv-x="1000" 
d="M909 -86h-775l1 18q1 24 8 45.5t16 36.5t25 29.5t28 23.5t33 19.5t32.5 15.5t33.5 13q23 9 34.5 14t27 13t24 16.5t12.5 18.5q2 15 2 28v32v10q-14 13 -26 38.5t-17 51.5q-10 4 -18 14q-14 18 -18 52q-3 29 13 48q-36 148 20 222q47 63 154 64h1q35 0 60 -9t39 -26
q50 -10 75 -50q26 -43 20 -116q-1 -17 -4 -34.5t-5.5 -29t-6.5 -22.5q7 -8 10.5 -20t2.5 -27q-2 -17 -7 -30t-12 -22q-7 -10 -17 -14q-5 -27 -18 -54q-5 -10 -11 -20t-13 -16v-10v-19q0 -9 0.5 -19.5t0.5 -21.5q3 -5 7.5 -11t9.5 -10t13 -9t14 -8.5t17 -8t17.5 -7.5t19.5 -8
q31 -12 47.5 -19.5t44 -24t42.5 -33.5t27.5 -44.5t14.5 -61.5zM172 -51h699q-4 23 -15.5 42t-23.5 31.5t-34.5 25t-36.5 18.5t-41 17l-27 11q-9 3 -23.5 10t-23 12.5t-18.5 13.5t-16.5 17.5t-10.5 19.5l-1 2v3q-2 25 -2 65v18v11l9 5q8 5 20 31t15 50l2 14l14 2q2 0 5.5 3
t7 12.5t5.5 23.5q2 18 -7 23l-12 7l5 13q9 27 14 57.5t3.5 67t-15.5 59.5q-6 10 -14.5 17t-19.5 11.5t-24 6.5l-8 1l-5 7q-14 25 -73 25q-23 0 -42 -3.5t-35 -9.5t-28.5 -15.5t-21.5 -21.5q-48 -63 -12 -203l4 -12l-11 -7q-9 -5 -7 -23q1 -9 3 -16t4 -11.5t4 -7t4 -3.5t3 -1
l14 -2l2 -14q2 -25 16 -53q6 -12 11.5 -19.5t8.5 -8.5l9 -5v-11v-18q0 -40 -2 -65v-3l-1 -2q-6 -16 -17 -28.5t-30 -23t-32.5 -16.5t-39.5 -16q-27 -11 -41.5 -17t-37 -18.5t-34.5 -25t-23.5 -31.5t-15.5 -42z" />
    <glyph glyph-name="uniE624" unicode="&#xe624;" 
d="M64 603h20h859q10 0 13.5 -3.5t3.5 -13.5q-1 -286 0 -573q0 -7 -1.5 -10t-4.5 -4.5t-9 -1.5q-289 1 -866 0q-14 5 -15 14v572v20zM135 563l3 -3q5 -6 8 -8q180 -166 288 -265q31 -28 49 -41q31 -21 60 1q23 19 57 50q109 99 275 252q1 1 13 14h-753zM134 42q0 -1 1 -1
q2 -3 3 -5h748q2 3 3 5q-2 1 -5 4q-3 2 -4 2.5t-3 2t-4 3.5q-18 16 -45 41.5t-47.5 44t-45 40.5t-48 44t-44.5 42q-5 4 -9 5.5t-7.5 0t-8.5 -6.5q-32 -29 -60 -51q-46 -34 -90 0q-25 18 -63 53q-11 10 -23 -1q-88 -82 -233 -214q-3 -2 -10 -6q-3 -2 -5 -3zM367 300
q-48 44 -135.5 124.5t-124.5 113.5v-476q55 50 260 238zM918 533l-4 2q-22 -20 -50.5 -46t-52.5 -48t-50 -46t-52.5 -48.5t-50.5 -46.5q139 -129 260 -239v472z" />
    <glyph glyph-name="uniE625" unicode="&#xe625;" 
d="M763 458h-124v96q0 27 -19.5 46t-47.5 19h-86q-14 0 -26.5 -5t-21.5 -14t-14 -21t-5 -25v-96h-124v96q0 38 15 72.5t40.5 59.5t61 40t74.5 15h86q39 0 74 -15t60.5 -40t41 -59.5t15.5 -72.5v-96zM661 480h80v74q0 68 -49.5 116.5t-119.5 48.5h-87q-69 0 -118.5 -48.5
t-50.5 -116.5v-74h81v74q0 8 1.5 15.5t4 14.5t6.5 13.5t9 12.5t10.5 10.5t12 8.5t14 6.5t15 4t15.5 1.5h87q36 0 62.5 -25.5t26.5 -61.5v-74zM565 -140h-84q-118 0 -201 81t-83 196v290h651v-290q0 -117 -86 -199q-83 -78 -197 -78zM219 405v-268q0 -52 20.5 -99.5t56 -81.5
t84 -54.5t101.5 -20.5h84q108 0 184.5 75t76.5 181v268h-607zM535 8q-10 0 -19 5t-14 13.5t-5 19.5v115q-20 10 -31.5 29t-11.5 42q0 33 24 56.5t58 23.5q22 0 40.5 -11t29.5 -29.5t11 -39.5q0 -23 -11.5 -42t-31.5 -29v-115q0 -16 -11.5 -27t-27.5 -11zM536 290
q-25 0 -43 -17t-18 -41q0 -18 10.5 -32.5t26.5 -21.5l7 -3v-129q0 -9 8 -12t16.5 0t8.5 12v129l7 3q17 7 27 21.5t10 32.5q0 12 -5 22.5t-13 18.5t-19 12.5t-23 4.5z" />
    <glyph glyph-name="uniE626" unicode="&#xe626;" 
d="M673 -148h-324q-38 0 -65 27t-27 65v596q0 38 27 65t65 27h324q38 0 64.5 -27t26.5 -65v-596q0 -38 -26.5 -65t-64.5 -27zM349 589q-20 0 -34.5 -14.5t-14.5 -34.5v-596q0 -20 14.5 -34.5t34.5 -14.5h324q20 0 34 14.5t14 34.5v596q0 20 -14 34.5t-34 14.5h-324zM655 197
h-289q-6 0 -11 3t-7.5 8t-2.5 11v300q0 9 6 15.5t15 6.5h289q6 0 11 -3t8 -8t3 -11v-300q0 -9 -6.5 -15.5t-15.5 -6.5zM388 241h245v257h-245v-257zM743 523q-9 0 -15.5 6t-6.5 15v153q0 2 -0.5 3t-2.5 3q-4 3 -12 3t-15 -2.5t-7 -6.5v-87q0 -9 -6 -15t-15 -6t-15.5 6
t-6.5 15v87q0 15 8 27t22.5 19t32.5 7q11 0 21 -3t18 -9q21 -15 21 -41v-153q0 -9 -6 -15t-15 -6zM418 105h-52q-9 0 -15 6.5t-6 15.5t6 15.5t15 6.5h52q8 0 14.5 -6.5t6.5 -15.5q0 -4 -1 -7t-3 -6t-4.5 -5t-6 -3t-6.5 -1zM656 105h-51q-9 0 -15 6.5t-6 15.5q0 6 2.5 11
t7.5 8t11 3h51q9 0 15.5 -6.5t6.5 -15.5q0 -4 -1 -7t-3 -6t-4.5 -5t-6 -3t-7.5 -1zM537 105h-51q-9 0 -15.5 6.5t-6.5 15.5q0 6 3 11t8 8t11 3h51q9 0 15.5 -6.5t6.5 -15.5q0 -5 -2 -9t-5 -6.5t-7 -4.5t-8 -2zM418 27h-52q-6 0 -11 3t-7.5 7.5t-2.5 10.5q0 9 6 15.5t15 6.5
h52q8 0 14.5 -6.5t6.5 -15.5q0 -6 -3 -10.5t-8 -7.5t-10 -3zM656 27h-51q-9 0 -15 6t-6 15t6 15.5t15 6.5h51q6 0 11 -3t8 -8t3 -11q0 -4 -1.5 -8t-4.5 -7t-7 -4.5t-9 -1.5zM537 27h-51q-9 0 -15.5 6t-6.5 15t6.5 15.5t15.5 6.5h51q9 0 15.5 -6.5t6.5 -15.5t-6.5 -15
t-15.5 -6zM418 -52h-52q-9 0 -15 6.5t-6 15.5t6 15t15 6h52q8 0 14.5 -6t6.5 -15t-6.5 -15.5t-14.5 -6.5zM656 -52h-51q-9 0 -15 6.5t-6 15.5q0 6 2.5 11t7.5 7.5t11 2.5h51q3 0 5.5 -0.5t4.5 -1.5t4 -2.5t3.5 -3t2.5 -4t1.5 -5t0.5 -4.5q0 -4 -1 -7t-3 -6t-4.5 -5t-6 -3
t-7.5 -1zM537 -52h-51q-6 0 -11 3t-8 8t-3 11t3 11t8 7.5t11 2.5h51q9 0 15.5 -6t6.5 -15t-6.5 -15.5t-15.5 -6.5z" />
    <glyph glyph-name="uniE627" unicode="&#xe627;" 
d="M632 747h199v-893h-199v893z" />
    <glyph glyph-name="uniE628" unicode="&#xe628;" 
d="M512 628q-89 0 -165 -44t-119.5 -120t-43.5 -165t43.5 -164.5t119.5 -119.5t165 -44t165 44t119.5 119.5t43.5 164.5q0 45 -11.5 87.5t-32.5 78.5t-51.5 66.5t-66.5 51.5t-78.5 33t-87.5 12zM512 14q-118 0 -201.5 83.5t-83.5 201.5t83.5 201.5t201.5 83.5
q58 0 110.5 -22.5t91 -61t61 -91t22.5 -110.5t-22.5 -110.5t-61 -90.5t-91 -61t-110.5 -23zM654 277h-142v143q0 4 -3 7t-8 3h-22q-4 0 -7.5 -3t-3.5 -7v-154v-22q0 -2 1 -4t2.5 -3.5t3.5 -2.5t4 -1h175q3 0 5 1t3.5 2.5t2 3.5t0.5 4v22q0 3 -1.5 5.5t-4 4t-5.5 1.5z" />
    <glyph glyph-name="uniE629" unicode="&#xe629;" 
d="M384 679l111 110q14 17 29 0l113 -114l-25 -51l-93 -92q-1 -1 -3.5 -2.5t-9.5 -1.5t-14 4l-92 92zM637 675l-25 -51q6 -1 14.5 -3.5t29 -10.5t33.5 -16l27 48l-6 3q-4 2 -14.5 7.5t-20 9.5t-20.5 8t-18 5zM716 642l-27 -48q8 -4 21.5 -11.5t47.5 -35.5t59 -62l46 31
q0 2 -16 21t-52.5 51t-78.5 54zM863 516l-46 -31q3 -4 8.5 -10.5t19.5 -30t24.5 -50.5t19 -70.5t7.5 -89.5l55 -9q0 4 0.5 10t-0.5 26t-3 40.5t-8.5 49t-15.5 55t-25 56.5t-36 54zM951 225l-55 9l-120 -56q-1 0 -1.5 -0.5t-2.5 -2t-3.5 -3.5t-3.5 -5t-2.5 -6.5t0 -8
t3.5 -9.5l56 -122l53 -22l129 61q2 1 4.5 3t6.5 9.5t-1 16.5zM875 -1l-53 22q-1 -2 -2.5 -4.5t-8 -10.5t-13.5 -16t-18.5 -19t-23.5 -21.5t-28.5 -22t-33.5 -21.5t-38.5 -18.5t-43.5 -14.5l13 -53l51 18q130 55 199 161zM625 -180l-13 53q-3 -1 -7.5 -2t-19 -4t-29.5 -5
t-37.5 -3.5t-43.5 0t-47 7t-49 14.5l-21 -50q-1 0 7 -3t22 -6.5t32.5 -8t42.5 -6.5t49.5 -2.5t55.5 3.5t58 13zM358 -170l21 50q-4 1 -11.5 4t-29.5 13.5t-43.5 24t-48.5 37.5t-49 52l-63 -6q1 -3 4 -7.5t13.5 -18t22.5 -27t31.5 -31.5t41 -33.5t51 -31t60.5 -26.5zM134 5
l63 6l59 133l2 2q1 1 2 5.5t0.5 8.5t-4 9t-10.5 9l-2 1q-7 3 -23.5 10.5t-33.5 15.5t-33.5 15t-27.5 12l-10 5l-54 -31l-53 -116q-6 -25 13 -33zM62 206l54 31v4v11q0 9 0.5 18.5t2 24t4 28.5t7.5 31t11 33.5t15 35t20 34.5l-47 31l-8 -12q-8 -13 -19 -38t-21.5 -57.5
t-16.5 -79t-2 -95.5zM129 488l47 -31q3 5 8.5 14t26 33.5t44.5 45t63 42t82 32.5l-16 55l-47 -17q-129 -57 -208 -174z" />
    <glyph glyph-name="uniE62A" unicode="&#xe62a;" 
d="M612.5 480q39.5 0 67 28t27.5 67q0 26 -12.5 47.5t-34.5 34.5t-48 13q-11 0 -21.5 -2.5t-20 -7.5t-17.5 -11t-14.5 -14.5t-11 -18t-7 -20t-2.5 -21.5q0 -39 27.5 -67t67 -28zM612 631q24 0 40.5 -16.5t16.5 -39.5q0 -9 -3 -17.5t-8 -15.5t-12 -12.5t-15.5 -8t-18.5 -2.5
q-23 0 -39.5 16.5t-16.5 39.5q0 12 4.5 22t12 17.5t18 12t21.5 4.5zM853 358q-2 1 -6 0.5t-8 -3.5t-5.5 -8.5t1.5 -14.5q6 -17 -9 -37q-28 80 -114 132q36 24 57.5 63t21.5 85q0 74 -52.5 126.5t-126.5 52.5t-126 -52.5t-52 -126.5q0 -53 28 -97q-54 -8 -91 -28
q-19 11 -38.5 25t-28.5 20.5t-20 12t-21 6.5q-11 1 -17.5 1.5t-11.5 -1t-7 -2.5t-4 -3l-2 -2q-1 -3 -1.5 -10.5t4 -22.5t14.5 -26q10 -12 18 -24t11 -18l4 -6q-7 -6 -17.5 -17t-31.5 -42.5t-29 -61.5h-54q-14 -3 -14 -12v-152q3 -14 12 -16h56q49 -70 79 -85l-30 -84v-1
t0.5 -4t1.5 -5.5t3 -5t4 -3.5q3 -1 11 -4t18.5 -7.5t22.5 -9.5l24 -8q12 -5 21.5 -8.5t15.5 -5.5l5 -3q2 -1 4.5 -2t9.5 0t12 7l28 61h169l31 -68l5 -3q3 -1 11.5 -1.5t16.5 4.5q12 5 39.5 17.5t48.5 21.5l22 10l9 6q8 9 3 22q-7 21 -34 68q4 3 10 8.5t22.5 24.5t29 40
t23 52.5t11.5 64.5q52 36 52 79q0 13 -3.5 26t-9 22.5t-11 17t-9.5 11.5t-6 4zM283 253q-8 0 -15 4t-10.5 11t-3.5 15q0 6 2 11.5t6 9t9.5 6t11.5 2.5t11.5 -2.5t9.5 -6t6 -9t2 -11.5q0 -8 -4 -15t-10.5 -11t-14.5 -4zM470 575q0 15 3 29t8.5 26.5t13 24t17 21t21 17.5
t24.5 13t27 8t28.5 3t28.5 -3t26.5 -8t24 -13t21 -17.5t17.5 -21t13.5 -24t8 -26.5t2.5 -29q0 -42 -22 -76.5t-59 -51.5q-1 1 -2.5 1.5t-3.5 1.5q-76 34 -162 32q-35 40 -35 93zM663 350q-15 12 -30.5 21t-31.5 14t-28 8t-27.5 4t-22.5 1t-20.5 -0.5t-14.5 -0.5
q-7 2 -10.5 5t-2.5 6.5t3 6.5t4 5l2 1q11 5 29 5q45 -30 99 -30q13 0 26 2q7 -3 12 -6t9 -6q6 -4 12.5 -9t8 -6t4 -4t3.5 -5t3 -7q4 -12 -9 -13q-10 0 -18 8z" />
    <glyph glyph-name="uniE62B" unicode="&#xe62b;" 
d="M758 533l-3 2q37 57 45 68q13 20 6.5 33t-27.5 12l-269 -16q-14 -1 -24 -8.5t-12.5 -19t1.5 -25.5l91 -251q8 -20 24 -20t27 17l6 9q4 6 11 17t13.5 20.5t17.5 25.5l27 -17q119 -79 114 -207q0 -8 2.5 -12t6 -3t6.5 5q34 54 40 126.5t-21 140t-82 103.5zM560 32l-102 247
q-9 19 -25 18t-26 -18q-1 -2 -3.5 -5.5t-5 -8.5t-7 -11.5t-8.5 -14t-9.5 -16.5t-10.5 -18l-28 17q-123 73 -123 201q-1 8 -3.5 11.5t-6 3t-6.5 -5.5q-32 -55 -34.5 -127.5t27.5 -139t86 -99.5l3 -2q-8 -15 -18 -31.5t-15.5 -26t-7.5 -13.5q-12 -19 -5.5 -32.5t27.5 -11.5
l269 29q21 2 30.5 18t1.5 36z" />
    <glyph glyph-name="uniE62C" unicode="&#xe62c;" 
d="M687 411q5 5 11.5 7.5t13.5 2.5t13.5 -2.5t11.5 -7.5q11 -10 11 -25t-11 -25l-200 -196q-10 -10 -25 -10t-25 10l-200 196q-7 7 -9.5 16t0 18t9.5 16t16 9t18 0t16 -9l175 -161z" />
    <glyph glyph-name="uniE62D" unicode="&#xe62d;" 
d="M635 113q5 -5 7.5 -11.5t2.5 -13.5t-2.5 -13.5t-7.5 -11.5q-10 -11 -25 -11t-25 11l-196 200q-10 10 -10 25t10 25l196 200q11 11 25.5 11t24.5 -11q3 -3 5 -6.5t3 -7t1.5 -7.5t0 -8t-1.5 -7.5t-3 -7t-5 -6.5l-161 -175z" />
    <glyph glyph-name="uniE62E" unicode="&#xe62e;" 
d="M389 463q-5 5 -7.5 11.5t-2.5 13.5t2.5 13.5t7.5 11.5q7 7 16 9.5t18 0t16 -9.5l196 -200q4 -4 6.5 -9t3.5 -10.5t0 -11t-3.5 -10.5t-6.5 -9l-196 -200q-7 -7 -16 -9.5t-18 0t-16 9.5t-9 16t0 18t9 16l161 175z" />
    <glyph glyph-name="uniE62F" unicode="&#xe62f;" 
d="M337 165q-4 -4 -9 -6.5t-10.5 -3t-11 0t-10.5 3t-9 6.5q-5 5 -8 11.5t-3 13.5t3 13.5t8 11.5l200 196q7 7 16 9t18 0t16 -9l200 -196q11 -11 11 -25.5t-10.5 -24.5t-25.5 -10t-25 10l-175 161z" />
    <glyph glyph-name="uniE630" unicode="&#xe630;" 
d="M915 88q1 4 1.5 7.5t0.5 7.5v450q0 7 -2 15l-265 -226zM512 287l70 57l35 28l265 228q-7 2 -13 2h-714q-6 0 -13 -2l265 -228l36 -29zM869 55q3 0 6 0.5t7 1.5l-267 256l-103 -84l-103 84l-267 -256q2 -1 4 -1.5t4 -0.5h5h714zM109 568q-1 -4 -1.5 -7.5t-0.5 -7.5v-450
q0 -7 3 -15l264 253z" />
    <glyph glyph-name="uniE631" unicode="&#xe631;" 
d="M128 620h128v-128h-128v128zM320 620h576v-128h-576v128zM128 364h128v-128h-128v128zM320 364h576v-128h-576v128zM128 108h128v-128h-128v128zM320 108h576v-128h-576v128z" />
    <glyph glyph-name="uniE632" unicode="&#xe632;" 
d="M914 -26q0 -7 -1 -13.5t-3.5 -13t-6 -12t-7.5 -10.5t-9 -9t-10.5 -7.5t-12 -6t-13 -3.5t-13.5 -1h-652q-31 0 -53.5 22.5t-22.5 53.5v313h-78v-313q0 -31 12 -59.5t33 -49.5t49.5 -33t59.5 -12h652q64 0 109 45t45 109v313h-78v-313zM838 780h-652q-64 0 -109 -45
t-45 -109v-313h78v313q0 31 22.5 53.5t53.5 22.5h652q21 0 38.5 -10t27.5 -28t10 -38v-313h78v313q0 31 -12 59.5t-33 49.5t-49.5 33t-59.5 12zM664 674h-274q-26 0 -44.5 -18.5t-18.5 -44.5v-622q0 -17 8.5 -31.5t23 -23t31.5 -8.5h274q25 0 43.5 18.5t18.5 44.5v622
q0 11 -3 20.5t-9 17t-13.5 13t-17 9t-19.5 3.5zM489 624h75q5 0 9 -3.5t4 -9.5q0 -3 -2 -6t-5 -4.5t-6 -1.5h-75q-5 0 -8.5 3.5t-3.5 8.5q2 11 12 13zM527 -49q-16 0 -27 11t-11 27q0 5 1.5 9.5t4 9t6 8t7.5 5.5t9 3.5t10 1.5q15 0 26 -11t11 -26q0 -8 -3 -15t-8 -12t-12 -8
t-14 -3zM701 51h-349v498h349v-498z" />
    <glyph glyph-name="uniE633" unicode="&#xe633;" 
d="M914 -38q0 -44 -38 -66q-18 -10 -38 -10h-652q-20 0 -38 10t-28 27.5t-10 38.5v313h-78v-313q0 -31 12 -59.5t33 -49.5t49.5 -33t59.5 -12h652q64 0 109 45t45 109v313h-78v-313zM838 768h-652q-64 0 -109 -45t-45 -109v-313h78v313q0 31 22.5 53.5t53.5 22.5h652
q21 0 38.5 -10t27.5 -28t10 -38v-313h78v313q0 64 -45 109t-109 45zM640 571q7 -27 6 -52q0 -3 -1.5 -18t-2.5 -30t0 -21q0 -5 8 -21q9 -19 3 -56q-2 -8 -4.5 -16t-6.5 -13q-2 -4 -11 -8t-11 -10q-5 -7 -5.5 -24t-2.5 -23q-2 -4 -4 -7.5t-4 -5.5t-4 -5t-3.5 -5.5t-3 -6.5
t-1.5 -10q10 -1 20 -3q0 -1 2.5 -6.5t4 -8t4 -8t5 -9t5 -7.5t5 -7t5.5 -5q10 -2 31 -8q21 -9 61.5 -26.5t51.5 -21.5q7 -3 25 -9.5t27 -10.5t19 -13t14 -21q0 -8 1 -50.5t1 -60.5h-724q-1 18 0 60.5t1 50.5q5 12 15 21t19 13t26.5 10.5t24.5 9.5q13 5 53 22t61 26q4 1 7.5 2
t8 2t7.5 2t8 2q11 8 31 51l15 4q-2 11 -10 19.5t-10 13.5q-3 34 -5 60q0 -1 -3.5 0t-7.5 2t-5 2q-5 3 -9 10t-6 18t-3 18t-2 20.5t-1 14.5q0 3 5 13.5t3 20.5q-15 71 1.5 110.5t55.5 51.5q18 8 31 12t35.5 8t44.5 0t42 -17l15 -13l23 -4q11 -7 19 -29z" />
    <glyph glyph-name="uniE634" unicode="&#xe634;" 
d="M914 -26q0 -7 -1 -13.5t-3.5 -13t-6 -12t-7.5 -10.5t-9 -9t-10.5 -7.5t-12 -6t-13 -3.5t-13.5 -1h-652q-31 0 -53.5 22.5t-22.5 53.5v313h-78v-313q0 -31 12 -59.5t33 -49.5t49.5 -33t59.5 -12h652q64 0 109 45t45 109v313h-78v-313zM838 780h-652q-64 0 -109 -45
t-45 -109v-313h78v313q0 31 22.5 53.5t53.5 22.5h652q21 0 38.5 -10t27.5 -28t10 -38v-313h78v313q0 31 -12 59.5t-33 49.5t-49.5 33t-59.5 12zM417 444v74q0 13 5.5 25.5t14.5 21t21.5 13.5t25.5 6h75q18 -1 33.5 -9.5t24.5 -23.5t9 -33v-73h88v73q0 25 -8 48t-22.5 41.5
t-33.5 32.5t-42.5 21.5t-48.5 7.5h-75q-64 0 -109.5 -44t-45.5 -107v-73h88v-1zM245 399v-241q0 -95 69 -162.5t166 -67.5h73q63 0 117.5 31t86 84t31.5 115v241h-543zM551 185v-105q0 -10 -7 -16.5t-16.5 -6.5t-16.5 6.5t-7 16.5v105q-7 2 -12.5 6.5t-10 9.5t-8 11.5
t-5.5 13.5t-2 14q0 8 2.5 16t6.5 14.5t9.5 12t12 9t14.5 6t16 2.5q26 0 44 -17.5t18 -42.5q0 -12 -5 -23t-13.5 -19.5t-19.5 -12.5z" />
    <glyph glyph-name="uniE635" unicode="&#xe635;" 
d="M914 -26q0 -7 -1 -13.5t-3.5 -13t-6 -12t-7.5 -10.5t-9 -9t-10.5 -7.5t-12 -6t-13 -3.5t-13.5 -1h-652q-31 0 -53.5 22.5t-22.5 53.5v313h-78v-313q0 -31 12 -59.5t33 -49.5t49.5 -33t59.5 -12h652q64 0 109 45t45 109v313h-78v-313zM838 780h-652q-64 0 -109 -45
t-45 -109v-313h78v313q0 31 22.5 53.5t53.5 22.5h652q21 0 38.5 -10t27.5 -28t10 -38v-313h78v313q0 31 -12 59.5t-33 49.5t-49.5 33t-59.5 12zM509 181q-76 62 -134 133q-13 17 -21 29t-14.5 26t-5 26.5t11.5 21.5l-191 191q-11 -13 -19 -36t-7.5 -67t16.5 -95t63 -124
t122 -149q79 -81 154.5 -132.5t129.5 -69t100 -19t70.5 7.5t35.5 21l-187 186q-9 -10 -20.5 -11.5t-27.5 7t-32 20t-44 34.5zM887 53l-145 145q-6 6 -13.5 8t-15 0t-13.5 -8l-52 -53l187 -186l52 52q9 10 9 21.5t-9 20.5zM413 484v1q9 9 9 21t-9 20l-150 149q-8 9 -20 9
t-21 -9l-53 -52l192 -191z" />
    <glyph glyph-name="uniE636" unicode="&#xe636;" 
d="M620 326l212 180v-433zM194 529h636l-318 -268zM512 235l94 79l202 -242h-591l202 240zM404 326l-212 180v-433zM914 -26q0 -7 -1 -13.5t-3.5 -13t-6 -12t-7.5 -10.5t-9 -9t-10.5 -7.5t-12 -6t-13 -3.5t-13.5 -1h-652q-31 0 -53.5 22.5t-22.5 53.5v313h-78v-313
q0 -31 12 -59.5t33 -49.5t49.5 -33t59.5 -12h652q64 0 109 45t45 109v313h-78v-313zM838 780h-652q-64 0 -109 -45t-45 -109v-313h78v313q0 31 22.5 53.5t53.5 22.5h652q21 0 38.5 -10t27.5 -28t10 -38v-313h78v313q0 31 -12 59.5t-33 49.5t-49.5 33t-59.5 12z" />
  </font>
</defs>
</svg>
